<svg width="24" height="24" viewBox="0 0 24 24" fill="none" xmlns="http://www.w3.org/2000/svg">
<path d="M3.51697 20.484C2.37085 19.377 1.45667 18.0529 0.827757 16.5889C0.198849 15.1248 -0.132185 13.5502 -0.146031 11.9568C-0.159877 10.3635 0.143743 8.78331 0.747114 7.30855C1.35048 5.83379 2.24152 4.49397 3.36823 3.36726C4.49495 2.24055 5.83477 1.34951 7.30953 0.746137C8.78428 0.142767 10.3644 -0.160854 11.9578 -0.147008C13.5511 -0.133162 15.1258 0.197873 16.5898 0.826781C18.0539 1.45569 19.378 2.36988 20.485 3.516C22.6709 5.77922 23.8804 8.81045 23.8531 11.9568C23.8257 15.1032 22.5637 18.1129 20.3388 20.3378C18.1139 22.5627 15.1042 23.8247 11.9578 23.8521C8.81143 23.8794 5.7802 22.6699 3.51697 20.484ZM13.681 12L17.077 8.604L15.385 6.912L12.001 10.308L8.60497 6.912L6.91297 8.604L10.309 12L6.91297 15.396L8.60497 17.088L12.001 13.692L15.397 17.088L17.089 15.396L13.693 12H13.681Z" fill="#F95B5B"/>
</svg>
