<svg width="24" height="24" viewBox="0 0 24 24" fill="none" xmlns="http://www.w3.org/2000/svg">
<path d="M12 24C5.38317 24 0 18.6168 0 12C0 5.38317 5.38317 0 12 0C18.6168 0 24 5.38317 24 12C24 18.6168 18.6168 24 12 24Z" fill="#EFB832"/>
<g opacity="0.2">
<path d="M15.5561 13.0552C15.4324 12.6936 15.2323 12.3892 14.9567 12.1417C14.7374 11.9224 14.4755 11.7513 14.171 11.6275C13.8665 11.5038 13.4809 11.4082 13.0141 11.3415L12.9241 11.3279L11.8001 11.1559C11.5816 11.1278 11.3984 11.0796 11.2506 11.0129C11.1888 10.9856 11.1309 10.9551 11.0763 10.9222C11.0008 10.8764 10.9333 10.8257 10.8723 10.7703C10.767 10.6659 10.6939 10.5518 10.6505 10.4281C10.608 10.3044 10.5863 10.1758 10.5863 10.0424C10.5863 9.68973 10.7124 9.38767 10.9647 9.13539C10.9992 9.10084 11.0362 9.06868 11.0764 9.03976C11.327 8.85095 11.6829 8.75696 12.1433 8.75696C12.3931 8.75696 12.6534 8.77946 12.9242 8.82526C13.0149 8.84054 13.1066 8.85821 13.1997 8.87828C13.5709 8.95942 13.914 9.15221 14.2281 9.45671L15.4846 8.21387C15.0468 7.78567 14.5663 7.48117 14.0425 7.30042C13.7067 7.18473 13.3331 7.10518 12.9234 7.06421C12.6944 7.04012 12.4534 7.02887 12.2003 7.02887C11.7954 7.02887 11.4202 7.06984 11.0764 7.15257C10.9518 7.18229 10.8313 7.21684 10.7148 7.25781C10.2769 7.40968 9.90579 7.62174 9.60129 7.89249C9.29679 8.16404 9.06298 8.48781 8.90154 8.86379C8.73926 9.23978 8.65891 9.65678 8.65891 10.1139C8.65891 10.98 8.90154 11.6468 9.38679 12.1127C9.61577 12.3321 9.88648 12.5104 10.2006 12.6486C10.4489 12.7571 10.7397 12.8439 11.0763 12.9073C11.1671 12.925 11.2603 12.9411 11.3575 12.9555L12.5714 13.1411C12.708 13.1612 12.8253 13.1829 12.9241 13.2054C13.0117 13.2263 13.0848 13.2471 13.1426 13.2696C13.2664 13.317 13.3804 13.3885 13.4857 13.4833C13.6946 13.693 13.7998 13.9742 13.7998 14.3261C13.7998 14.7358 13.6472 15.0499 13.3427 15.2685C13.2254 15.3536 13.0856 15.4219 12.9241 15.4733C12.6671 15.556 12.3545 15.597 11.9858 15.597C11.6725 15.597 11.3688 15.5689 11.0763 15.5126C10.9341 15.4853 10.7951 15.4516 10.6578 15.4114C10.2392 15.2877 9.86801 15.0644 9.54424 14.7406L8.25879 16.0252C8.7537 16.5305 9.30321 16.88 9.90818 17.0753C10.2681 17.1917 10.6578 17.2729 11.0771 17.3195C11.3615 17.3516 11.6604 17.3677 11.9721 17.3677C12.3031 17.3677 12.6205 17.3412 12.9242 17.2874C13.1089 17.2552 13.2889 17.2127 13.464 17.1604C13.926 17.023 14.3253 16.823 14.6635 16.5611C15.0018 16.2992 15.266 15.9778 15.4565 15.597C15.6469 15.2162 15.7417 14.7783 15.7417 14.2835C15.7416 13.8264 15.6798 13.4175 15.5561 13.0552Z" fill="white"/>
<path d="M12.924 7.09718V8.82528C12.6532 8.77948 12.3929 8.75698 12.1431 8.75698C11.6827 8.75698 11.3269 8.85097 11.0762 9.03978V7.09718C11.0762 6.58864 11.4923 6.17328 12.0001 6.17328C12.254 6.17328 12.4853 6.27692 12.6524 6.44483C12.8131 6.60472 12.9152 6.82325 12.9232 7.06423C12.924 7.07548 12.924 7.08593 12.924 7.09718Z" fill="white"/>
<path d="M12.924 11.3279V13.2054C12.8252 13.1829 12.7079 13.1612 12.5713 13.1411L11.3574 12.9556C11.2602 12.9411 11.167 12.9251 11.0762 12.9074V10.9222C11.1308 10.9551 11.1886 10.9856 11.2505 11.0129C11.3983 11.0796 11.5815 11.1278 11.8 11.1559L12.924 11.3279Z" fill="white"/>
<path d="M11.9856 15.5971C12.3544 15.5971 12.6669 15.5561 12.924 15.4734V17.3003C12.924 17.808 12.5086 18.2242 12.0001 18.2242C11.4988 18.2242 11.0866 17.8185 11.077 17.3196C11.0762 17.3131 11.0762 17.3067 11.0762 17.3003V15.5127C11.3686 15.569 11.6723 15.5971 11.9856 15.5971Z" fill="white"/>
</g>
<g opacity="0.5">
<path d="M12.0004 22.1547C6.40106 22.1547 1.8457 17.5993 1.8457 12C1.8457 6.4007 6.40102 1.84534 12.0004 1.84534C17.5997 1.84534 22.155 6.40065 22.155 12C22.155 17.5994 17.5997 22.1547 12.0004 22.1547ZM12.0004 4.43457C7.82878 4.43457 4.43494 7.82841 4.43494 12C4.43494 16.1716 7.82878 19.5654 12.0004 19.5654C16.172 19.5654 19.5658 16.1716 19.5658 12C19.5658 7.82841 16.1719 4.43457 12.0004 4.43457Z" fill="#AE8132"/>
</g>
<path d="M8.62526 3.85612C8.64673 3.91068 8.66539 3.96028 8.6809 4.00471C8.69656 4.04906 8.7079 4.09125 8.71489 4.13114C8.72192 4.17084 8.72379 4.20937 8.72037 4.2465C8.71714 4.28348 8.70673 4.32229 8.68925 4.36246C8.66595 4.41609 8.63379 4.46296 8.59283 4.50318C8.55186 4.54321 8.49814 4.57645 8.43186 4.60246C8.36572 4.62848 8.30361 4.64085 8.24567 4.63954C8.18773 4.63823 8.132 4.62609 8.07823 4.6027C8.03815 4.58507 8.00422 4.56393 7.97651 4.53899C7.94872 4.5142 7.92406 4.48457 7.90283 4.4504C7.88122 4.41623 7.8612 4.3776 7.84236 4.33448C7.82337 4.29117 7.80331 4.24237 7.78184 4.18781C7.76047 4.13334 7.74195 4.08389 7.72639 4.0394C7.71064 3.99487 7.69911 3.95287 7.69147 3.91321C7.68397 3.87379 7.68172 3.83535 7.68519 3.79823C7.68842 3.76115 7.69892 3.72243 7.71631 3.68226C7.7397 3.62864 7.77204 3.58167 7.81367 3.54121C7.85515 3.50085 7.90901 3.46771 7.97539 3.4417C8.04167 3.41554 8.1035 3.40331 8.16087 3.40485C8.21811 3.40631 8.27375 3.41868 8.32737 3.44193C8.36754 3.45942 8.40148 3.48079 8.42918 3.50564C8.45689 3.53057 8.48159 3.56006 8.50372 3.59395C8.5257 3.62789 8.54614 3.66651 8.56498 3.70954C8.58373 3.75276 8.60403 3.8017 8.62526 3.85612ZM8.40247 3.94373C8.381 3.88926 8.36215 3.84454 8.34603 3.80962C8.32976 3.7747 8.31486 3.74634 8.30131 3.72445C8.28776 3.70256 8.27478 3.68578 8.26212 3.67429C8.24947 3.66243 8.23554 3.65278 8.22026 3.64528C8.19706 3.63332 8.17118 3.62671 8.14278 3.62479C8.11428 3.62296 8.08461 3.62826 8.05362 3.64054C8.02268 3.65259 7.99714 3.66918 7.97759 3.68976C7.95795 3.71057 7.94309 3.73317 7.9332 3.75806C7.9272 3.77414 7.92345 3.79073 7.92228 3.80784C7.92097 3.82495 7.92279 3.84614 7.92776 3.8714C7.93283 3.89662 7.94154 3.92742 7.95397 3.96389C7.96653 4.00035 7.98345 4.04587 8.00497 4.10039C8.02634 4.15485 8.04486 4.19971 8.06061 4.23478C8.07626 4.27007 8.09084 4.29824 8.10415 4.31962C8.11747 4.34099 8.13036 4.35745 8.14287 4.36907C8.15562 4.38089 8.16954 4.39035 8.18497 4.39804C8.20906 4.40934 8.23559 4.41632 8.26437 4.41857C8.29301 4.42092 8.32278 4.41595 8.3539 4.40367C8.38479 4.39148 8.41006 4.37493 8.42947 4.3536C8.44878 4.33237 8.46298 4.30949 8.47184 4.28512C8.47794 4.26914 8.48159 4.25254 8.4829 4.23543C8.48412 4.21823 8.48248 4.19732 8.47765 4.17262C8.47292 4.14801 8.46458 4.11745 8.45262 4.0807C8.44053 4.04399 8.42389 3.99825 8.40247 3.94373Z" fill="#EFB832"/>
<path d="M9.75387 4.17188L9.08482 3.57586L9.28563 4.30154L9.05491 4.36543L8.72754 3.18305L8.93355 3.1261L9.60213 3.72057L9.4017 2.99654L9.63265 2.93274L9.95988 4.11493L9.75387 4.17188Z" fill="#EFB832"/>
<path d="M10.2057 4.07607L10.0293 2.86201L10.8289 2.74585L10.8596 2.9573L10.297 3.03905L10.3383 3.32368L10.8175 3.25421L10.8481 3.46543L10.3691 3.53508L10.412 3.83016L10.9747 3.74841L11.0055 3.95972L10.2057 4.07607Z" fill="#EFB832"/>
<path d="M12.4755 3.07984C12.4753 3.13164 12.4659 3.18063 12.4473 3.22708C12.4288 3.27363 12.4022 3.31422 12.3676 3.34914C12.333 3.38402 12.2903 3.41149 12.2397 3.43131C12.1891 3.45138 12.1323 3.46117 12.0692 3.46094L11.833 3.45991L11.8312 3.92172L11.5918 3.92088L11.5965 2.69397L12.072 2.69584C12.1352 2.69608 12.1921 2.70634 12.2427 2.72664C12.2931 2.74684 12.3354 2.77474 12.3698 2.8098C12.404 2.84505 12.4304 2.88592 12.4485 2.93247C12.4668 2.9792 12.4757 3.02805 12.4755 3.07984ZM12.236 3.079C12.2363 3.02847 12.2206 2.98759 12.1891 2.95652C12.1577 2.92534 12.1143 2.90955 12.0592 2.9095L11.8352 2.90856L11.834 3.24442L12.058 3.24536C12.113 3.24555 12.1565 3.23055 12.1881 3.20027C12.2198 3.16999 12.2358 3.12953 12.236 3.079Z" fill="#EFB832"/>
<path d="M12.6416 3.93963L12.7791 2.72064L13.5821 2.81111L13.5581 3.02341L12.9931 2.9598L12.961 3.24574L13.442 3.29988L13.418 3.51227L12.9369 3.45799L12.9035 3.75419L13.4686 3.8178L13.4447 4.03019L12.6416 3.93963Z" fill="#EFB832"/>
<path d="M14.3492 4.22568L14.0458 3.38245L13.876 4.11613L13.6426 4.06204L13.9194 2.86682L14.1275 2.91506L14.4314 3.7566L14.6009 3.02474L14.8343 3.07884L14.5575 4.27396L14.3492 4.22568Z" fill="#EFB832"/>
<path d="M15.4789 4.5951L15.282 3.72102L15.0228 4.4279L14.7979 4.3453L15.2204 3.19373L15.4209 3.26737L15.6184 4.13994L15.8771 3.43457L16.102 3.51716L15.6794 4.66898L15.4789 4.5951Z" fill="#EFB832"/>
<path d="M16.5537 4.53472L16.329 4.98472L16.1162 4.8786L16.341 4.42841L16.3344 3.61639L16.5671 3.73255L16.5513 4.27733L16.9742 3.93571L17.2069 4.05186L16.5537 4.53472Z" fill="#EFB832"/>
<path d="M15.5245 20.2804C15.503 20.2258 15.4844 20.1762 15.4689 20.1318C15.4532 20.0875 15.4419 20.0453 15.4349 20.0054C15.4279 19.9657 15.426 19.9272 15.4294 19.8901C15.4326 19.8531 15.443 19.8143 15.4605 19.7741C15.4838 19.7204 15.516 19.6736 15.5569 19.6333C15.5979 19.5933 15.6516 19.5601 15.7179 19.5341C15.7841 19.508 15.8462 19.4957 15.9041 19.497C15.9621 19.4983 16.0178 19.5104 16.0715 19.5338C16.1116 19.5515 16.1455 19.5726 16.1732 19.5975C16.201 19.6223 16.2257 19.652 16.2469 19.6861C16.2685 19.7203 16.2886 19.7589 16.3074 19.802C16.3264 19.8454 16.3464 19.8942 16.3679 19.9487C16.3893 20.0032 16.4078 20.0526 16.4234 20.0971C16.4391 20.1416 16.4507 20.1836 16.4583 20.2233C16.4658 20.2627 16.468 20.3011 16.4646 20.3382C16.4613 20.3754 16.4508 20.414 16.4335 20.4542C16.4101 20.5078 16.3777 20.5548 16.3361 20.5953C16.2946 20.6357 16.2407 20.6688 16.1744 20.6948C16.1081 20.721 16.0463 20.7332 15.9889 20.7317C15.9317 20.7302 15.876 20.7179 15.8224 20.6945C15.7822 20.6771 15.7482 20.6557 15.7206 20.6308C15.6929 20.6059 15.6681 20.5764 15.646 20.5425C15.6241 20.5086 15.6036 20.47 15.5848 20.4269C15.566 20.3837 15.5458 20.3348 15.5245 20.2804ZM15.7473 20.1927C15.7688 20.2472 15.7876 20.2919 15.8037 20.3269C15.82 20.3618 15.8349 20.3901 15.8484 20.412C15.862 20.4339 15.875 20.4507 15.8876 20.4622C15.9003 20.4741 15.9142 20.4837 15.9295 20.4912C15.9527 20.5032 15.9786 20.5098 16.007 20.5117C16.0355 20.5136 16.0652 20.5083 16.0961 20.496C16.127 20.4839 16.1526 20.4673 16.1722 20.4468C16.1919 20.426 16.2067 20.4034 16.2166 20.3785C16.2226 20.3624 16.2263 20.3458 16.2275 20.3287C16.2288 20.3116 16.227 20.2904 16.222 20.2652C16.217 20.2399 16.2083 20.2092 16.1958 20.1727C16.1833 20.1362 16.1664 20.0907 16.1448 20.0362C16.1235 19.9817 16.1049 19.9369 16.0892 19.9018C16.0735 19.8665 16.059 19.8384 16.0457 19.8169C16.0323 19.7956 16.0195 19.7791 16.0069 19.7675C15.9942 19.7557 15.9803 19.7462 15.9648 19.7385C15.9407 19.7272 15.9142 19.7202 15.8854 19.718C15.8568 19.7157 15.827 19.7206 15.7959 19.7329C15.765 19.7451 15.7397 19.7616 15.7203 19.783C15.701 19.8042 15.6868 19.8271 15.6779 19.8515C15.6718 19.8674 15.6682 19.884 15.6669 19.9011C15.6656 19.9183 15.6673 19.9392 15.6721 19.964C15.6768 19.9886 15.6852 20.0191 15.6971 20.0559C15.7093 20.0925 15.7259 20.1383 15.7473 20.1927Z" fill="#EFB832"/>
<path d="M14.3964 19.9647L15.0655 20.5607L14.8647 19.835L15.0954 19.7711L15.4228 20.9535L15.2168 21.0104L14.5482 20.416L14.7486 21.14L14.5177 21.2038L14.1904 20.0216L14.3964 19.9647Z" fill="#EFB832"/>
<path d="M13.9443 20.0604L14.1207 21.2745L13.3211 21.3906L13.2904 21.1792L13.853 21.0974L13.8117 20.8128L13.3325 20.8823L13.3019 20.6711L13.7809 20.6014L13.738 20.3063L13.1753 20.3881L13.1445 20.1768L13.9443 20.0604Z" fill="#EFB832"/>
<path d="M11.6738 21.0566C11.6741 21.0048 11.6834 20.9558 11.702 20.9094C11.7206 20.8628 11.7471 20.8222 11.7817 20.7874C11.8163 20.7525 11.859 20.725 11.9096 20.7052C11.9603 20.6851 12.0171 20.6753 12.0801 20.6756L12.3163 20.6766L12.3181 20.2148L12.5575 20.2156L12.5528 21.4425L12.0773 21.4407C12.0141 21.4404 11.9572 21.4302 11.9067 21.4099C11.8562 21.3897 11.8139 21.3618 11.7795 21.3267C11.7453 21.2915 11.7189 21.2506 11.7008 21.204C11.6826 21.1573 11.6737 21.1084 11.6738 21.0566ZM11.9134 21.0575C11.9131 21.108 11.9288 21.1489 11.9603 21.1799C11.9917 21.2111 12.0351 21.2269 12.0902 21.227L12.3142 21.2279L12.3155 20.892L12.0914 20.8911C12.0365 20.8909 11.9929 20.9059 11.9613 20.9362C11.9296 20.9665 11.9135 21.0069 11.9134 21.0575Z" fill="#EFB832"/>
<path d="M11.5078 20.1969L11.3703 21.4159L10.5674 21.3254L10.5913 21.1131L11.1563 21.1767L11.1885 20.8908L10.7074 20.8366L10.7314 20.6242L11.2125 20.6785L11.2459 20.3823L10.6808 20.3187L10.7047 20.1063L11.5078 20.1969Z" fill="#EFB832"/>
<path d="M9.80049 19.9108L10.1039 20.7541L10.2737 20.0204L10.5071 20.0745L10.2303 21.2697L10.0222 21.2215L9.71827 20.3799L9.54882 21.1118L9.31543 21.0577L9.59218 19.8625L9.80049 19.9108Z" fill="#EFB832"/>
<path d="M8.67096 19.5414L8.86784 20.4155L9.1271 19.7086L9.35201 19.7912L8.92943 20.9428L8.72895 20.8691L8.53146 19.9965L8.27266 20.7019L8.04785 20.6193L8.47043 19.4675L8.67096 19.5414Z" fill="#EFB832"/>
<path d="M7.59647 19.6017L7.82123 19.1517L8.034 19.2579L7.80923 19.708L7.81584 20.5201L7.58316 20.4039L7.59895 19.8591L7.17605 20.2007L6.94336 20.0846L7.59647 19.6017Z" fill="#EFB832"/>
<path d="M15.5561 12.8564C15.4324 12.4949 15.2323 12.1904 14.9567 11.943C14.7374 11.7236 14.4755 11.5525 14.171 11.4288C13.8665 11.3051 13.4809 11.2095 13.0141 11.1428L12.9241 11.1291L11.8001 10.9571C11.5816 10.929 11.3984 10.8808 11.2506 10.8141C11.1888 10.7868 11.1309 10.7563 11.0763 10.7234C11.0008 10.6776 10.9333 10.627 10.8723 10.5715C10.767 10.4671 10.6939 10.353 10.6505 10.2293C10.608 10.1056 10.5863 9.97698 10.5863 9.84363C10.5863 9.49094 10.7124 9.18888 10.9647 8.93659C10.9992 8.90205 11.0362 8.86989 11.0764 8.84097C11.327 8.65216 11.6829 8.55817 12.1433 8.55817C12.3931 8.55817 12.6534 8.58067 12.9242 8.62647C13.0149 8.64175 13.1066 8.65942 13.1997 8.67948C13.5709 8.76063 13.914 8.95342 14.2281 9.25792L15.4846 8.01508C15.0468 7.58688 14.5663 7.28238 14.0425 7.10163C13.7067 6.98594 13.3331 6.90639 12.9234 6.86542C12.6944 6.84133 12.4534 6.83008 12.2003 6.83008C11.7954 6.83008 11.4202 6.87105 11.0764 6.95383C10.9518 6.98355 10.8313 7.01809 10.7148 7.05906C10.2769 7.21089 9.90579 7.423 9.60129 7.69375C9.29679 7.9653 9.06298 8.28906 8.90154 8.66505C8.73926 9.04103 8.65891 9.45803 8.65891 9.91516C8.65891 10.7812 8.90154 11.448 9.38679 11.914C9.61577 12.1333 9.88648 12.3117 10.2006 12.4499C10.4489 12.5583 10.7397 12.6451 11.0763 12.7086C11.1671 12.7263 11.2603 12.7423 11.3575 12.7568L12.5714 12.9423C12.708 12.9624 12.8253 12.9841 12.9241 13.0066C13.0117 13.0275 13.0848 13.0484 13.1426 13.0709C13.2664 13.1183 13.3804 13.1898 13.4857 13.2846C13.6946 13.4943 13.7998 13.7755 13.7998 14.1273C13.7998 14.5371 13.6472 14.8512 13.3427 15.0697C13.2254 15.1549 13.0856 15.2232 12.9241 15.2746C12.6671 15.3573 12.3545 15.3983 11.9858 15.3983C11.6725 15.3983 11.3688 15.3701 11.0763 15.3139C10.9341 15.2866 10.7951 15.2528 10.6578 15.2126C10.2392 15.0889 9.86801 14.8656 9.54424 14.5418L8.25879 15.8264C8.7537 16.3317 9.30321 16.6812 9.90818 16.8765C10.2681 16.993 10.6578 17.0741 11.0771 17.1207C11.3615 17.1528 11.6604 17.1689 11.9721 17.1689C12.3031 17.1689 12.6205 17.1424 12.9242 17.0886C13.1089 17.0564 13.2889 17.0139 13.464 16.9616C13.926 16.8243 14.3253 16.6242 14.6635 16.3623C15.0018 16.1004 15.266 15.779 15.4565 15.3982C15.6469 15.0174 15.7417 14.5795 15.7417 14.0847C15.7416 13.6277 15.6798 13.2188 15.5561 12.8564Z" fill="#CC9322"/>
<path d="M12.924 6.89845V8.62655C12.6532 8.58075 12.3929 8.55825 12.1431 8.55825C11.6827 8.55825 11.3269 8.65224 11.0762 8.84105V6.89845C11.0762 6.38991 11.4923 5.97455 12.0001 5.97455C12.254 5.97455 12.4853 6.07819 12.6524 6.2461C12.8131 6.40599 12.9152 6.62447 12.9232 6.8655C12.924 6.87675 12.924 6.8872 12.924 6.89845Z" fill="#CC9322"/>
<path d="M12.924 11.1291V13.0066C12.8252 12.9841 12.7079 12.9624 12.5713 12.9424L11.3574 12.7568C11.2602 12.7423 11.167 12.7263 11.0762 12.7086V10.7234C11.1308 10.7563 11.1886 10.7869 11.2505 10.8141C11.3983 10.8808 11.5815 10.929 11.8 10.9572L12.924 11.1291Z" fill="#CC9322"/>
<path d="M11.9856 15.3984C12.3544 15.3984 12.6669 15.3574 12.924 15.2747V17.1016C12.924 17.6093 12.5086 18.0255 12.0001 18.0255C11.4988 18.0255 11.0866 17.6198 11.077 17.1208C11.0762 17.1144 11.0762 17.108 11.0762 17.1016V15.314C11.3686 15.3702 11.6723 15.3984 11.9856 15.3984Z" fill="#CC9322"/>
<path d="M3.09168 12.4481C3.33917 12.4481 3.5398 12.2475 3.5398 12C3.5398 11.7525 3.33917 11.5519 3.09168 11.5519C2.84419 11.5519 2.64355 11.7525 2.64355 12C2.64355 12.2475 2.84419 12.4481 3.09168 12.4481Z" fill="#EFB832"/>
<path d="M20.8182 12.4481C21.0657 12.4481 21.2664 12.2475 21.2664 12C21.2664 11.7525 21.0657 11.5519 20.8182 11.5519C20.5707 11.5519 20.3701 11.7525 20.3701 12C20.3701 12.2475 20.5707 12.4481 20.8182 12.4481Z" fill="#EFB832"/>
<path opacity="0.06" d="M12.0059 23.9887C15.0788 23.9887 18.1518 22.8191 20.4912 20.4797C25.17 15.8009 25.17 8.18789 20.4912 3.50916C18.1517 1.16967 15.0788 0 12.0059 0V23.9887Z" fill="#040000"/>
</svg>
