<svg width="22" height="27" viewBox="0 0 22 27" fill="none" xmlns="http://www.w3.org/2000/svg">
<path d="M6.74805 3.91252V17.8808C6.74805 18.4982 6.99332 19.0904 7.42992 19.527C7.86651 19.9636 8.45866 20.2088 9.07609 20.2088H18.3883C19.0057 20.2088 19.5979 19.9636 20.0345 19.527C20.4711 19.0904 20.7163 18.4982 20.7163 17.8808V7.68628C20.7163 7.37614 20.6543 7.06913 20.5339 6.78329C20.4136 6.49744 20.2374 6.23852 20.0156 6.02173L16.1568 2.24797C15.7219 1.8227 15.1378 1.58455 14.5295 1.58447H9.07609C8.45866 1.58447 7.86651 1.82975 7.42992 2.26634C6.99332 2.70294 6.74805 3.29508 6.74805 3.91252Z" stroke="#0FB145" stroke-width="2.32805" stroke-linecap="round" stroke-linejoin="round"/>
<path d="M16.062 20.2086V22.5366C16.062 23.154 15.8168 23.7462 15.3802 24.1828C14.9436 24.6194 14.3514 24.8646 13.734 24.8646H4.4218C3.80436 24.8646 3.21221 24.6194 2.77562 24.1828C2.33903 23.7462 2.09375 23.154 2.09375 22.5366V9.73234C2.09375 9.11491 2.33903 8.52276 2.77562 8.08617C3.21221 7.64957 3.80436 7.4043 4.4218 7.4043H6.74984" stroke="#0FB145" stroke-width="2.32805" stroke-linecap="round" stroke-linejoin="round"/>
</svg>
