<svg width="135" height="133" viewBox="0 0 135 133" fill="none" xmlns="http://www.w3.org/2000/svg">
<path d="M112.85 0H21.8878C14.6067 0 8.68359 5.92315 8.68359 13.2042V30.8099C8.68359 33.2413 10.6552 35.2113 13.0849 35.2113H121.654C124.084 35.2113 126.055 33.2413 126.055 30.8099V13.2044C126.055 5.92288 120.132 0 112.85 0ZM39.4935 17.6058C37.0627 17.6058 35.0922 15.635 35.0922 13.2044C35.0922 10.7739 37.063 8.80314 39.4935 8.80314C41.9243 8.80314 43.8948 10.7739 43.8948 13.2044C43.8948 15.635 41.9241 17.6058 39.4935 17.6058ZM95.2447 17.6058C92.814 17.6058 90.8434 15.635 90.8434 13.2044C90.8434 10.7739 92.8142 8.80314 95.2447 8.80314C97.6755 8.80314 99.646 10.7739 99.646 13.2044C99.646 15.635 97.6755 17.6058 95.2447 17.6058Z" fill="#7B8C82"/>
<path d="M121.532 132.043H13.2043C9.31591 132.043 5.64513 130.341 3.12908 127.372C0.61619 124.406 -0.458281 120.503 0.180402 116.667L7.21539 74.8243L0.604874 42.2004C-0.174598 38.3088 0.822506 34.313 3.34145 31.2412C5.86039 28.1694 9.57985 26.4083 13.5514 26.4083H121.186C125.157 26.4083 128.877 28.1691 131.396 31.2412C133.914 34.313 134.911 38.3091 134.132 42.2004L127.521 74.8243L134.556 116.667C135.196 120.503 134.121 124.406 131.608 127.372C129.091 130.341 125.421 132.043 121.532 132.043Z" fill="#2F4F4E"/>
<path d="M131.608 127.372C134.121 124.406 135.195 120.503 134.556 116.667L127.521 74.8242H7.21561L0.180621 116.667C-0.458588 120.504 0.616146 124.406 3.1293 127.372C5.64508 130.341 9.31587 132.043 13.2045 132.043H121.532C125.421 132.043 129.091 130.341 131.608 127.372Z" fill="#476160"/>
</svg>