<svg width="35" height="29" viewBox="0 0 35 29" fill="none" xmlns="http://www.w3.org/2000/svg">
<path d="M26.072 3.50503C26.7678 3.20619 27.2498 2.57559 27.2498 1.84369C27.2498 1.35471 27.0311 0.885761 26.6417 0.540003C26.2524 0.194245 25.7243 0 25.1737 0C24.6231 0 24.0951 0.194245 23.7058 0.540003C23.3164 0.885761 23.0977 1.35471 23.0977 1.84369C23.0977 2.58572 23.591 3.22138 24.3011 3.51516C23.4798 7.46591 22.2194 10.4062 17.5283 11.0343C17.5283 11.0343 18.7916 16.6438 24.7004 16.6438C30.6091 16.6438 31.2079 11.09 31.2079 11.09C26.4142 11.3078 26.0093 5.95652 26.072 3.50503Z" fill="#F19534"/>
<path d="M9.02467 3.50504C8.32885 3.2062 7.84691 2.5756 7.84691 1.8437C7.84691 1.35472 8.06564 0.885776 8.45497 0.540018C8.84431 0.19426 9.37235 1.52588e-05 9.92295 1.52588e-05C10.4736 1.52588e-05 11.0016 0.19426 11.3909 0.540018C11.7803 0.885776 11.999 1.35472 11.999 1.8437C11.999 2.58573 11.5056 3.2214 10.7956 3.51517C11.6169 7.46593 12.8773 10.4062 17.5684 11.0343C17.5684 11.0343 16.3051 16.6438 10.3963 16.6438C4.48761 16.6438 3.8916 11.0925 3.8916 11.0925C8.68246 11.3078 9.08741 5.95654 9.02467 3.50504Z" fill="#F19534"/>
<path d="M24.6201 16.6438C24.6458 16.6438 24.6714 16.6463 24.6971 16.6463C26.3254 16.6463 27.5488 16.2234 28.4671 15.6131L24.6201 16.6438Z" fill="#FFCA28"/>
<path d="M33.1208 2.25144C32.1712 2.13748 31.2643 2.94029 31.0989 4.03941C30.9963 4.72573 31.2044 5.36646 31.6065 5.77926L30.9221 8.29913C30.9221 8.29913 29.8755 14.2531 24.5885 15.4282C20.3623 16.3678 18.8309 9.49702 18.4602 7.37476C19.2644 7.0202 19.8204 6.28577 19.8204 5.4323C19.8204 4.23442 18.7282 3.26445 17.3794 3.26445C16.0305 3.26445 14.9383 4.23442 14.9383 5.4323C14.9383 6.29083 15.503 7.03287 16.3214 7.38236C16.0277 9.47676 14.733 16.1196 10.1703 15.4257C5.53911 14.7191 3.51725 7.79263 3.04957 5.90842C3.60565 5.50321 3.91649 4.78904 3.80242 4.02168C3.63702 2.92003 2.65604 2.12988 1.61231 2.25397C0.568589 2.37807 -0.141485 3.37082 0.023914 4.46994C0.143686 5.27022 0.696916 5.90589 1.38988 6.14648L5.01725 26.1611C5.01725 26.1611 8.18264 28.3821 17.3794 28.3821C26.5761 28.3821 29.7415 26.1611 29.7415 26.1611L33.3774 6.0933C33.9649 5.81978 34.4269 5.20438 34.5409 4.44968C34.7092 3.34803 34.0733 2.3654 33.1208 2.25144Z" fill="#FFCA28"/>
<path d="M17.4934 23.2841C19.0274 23.2841 20.2709 21.9677 20.2709 20.3439C20.2709 18.72 19.0274 17.4036 17.4934 17.4036C15.9594 17.4036 14.7158 18.72 14.7158 20.3439C14.7158 21.9677 15.9594 23.2841 17.4934 23.2841Z" fill="#26A69A"/>
<path d="M17.4935 18.1304C17.6019 18.2368 17.6988 18.4318 17.4935 18.8117C17.2882 19.1916 16.1817 19.7057 15.9792 19.8095C15.7768 19.9159 15.6427 19.8677 15.58 19.8247C15.2806 19.612 15.3946 19.1308 15.5885 18.837C16.0049 18.2013 16.8861 17.5454 17.4935 18.1304Z" fill="#69F0AE"/>
<path d="M17.2884 21.4404C16.9747 21.5747 15.9452 21.9824 16.2846 22.4661C16.4842 22.7523 16.8977 22.8738 17.277 22.889C17.6562 22.9042 18.0298 22.7979 18.3663 22.6434C19.9633 21.909 20.0916 19.9792 19.7808 19.8323C19.4614 19.6803 19.2446 20.0729 19.0792 20.24C18.5763 20.7402 17.9679 21.148 17.2884 21.4404Z" fill="#00796B"/>
<path d="M32.7937 17.9379C33.2386 15.7524 31.5846 15.2053 31.5846 15.2053C31.5846 15.2053 30.518 15.0331 30.0161 17.4922C29.5142 19.9488 30.5808 20.121 30.5808 20.121C30.5808 20.121 32.346 20.1235 32.7937 17.9379Z" fill="#26A69A"/>
<path d="M32.0577 15.9524C32.4456 16.4134 31.9864 17.0946 31.2421 17.5479C31.0226 17.6822 30.7317 17.6315 30.6889 17.5201C30.5691 17.201 30.6205 16.8388 30.7802 16.5324C31.2536 15.6131 31.861 15.7194 32.0577 15.9524Z" fill="#69F0AE"/>
<path d="M1.90098 18.0038C1.45327 15.8208 3.11011 15.2712 3.11011 15.2712C3.11011 15.2712 4.17664 15.099 4.67854 17.5581C5.18044 20.0146 4.11391 20.1869 4.11391 20.1869C4.11391 20.1869 2.34585 20.1894 1.90098 18.0038Z" fill="#26A69A"/>
<path d="M3.61743 16.0132C3.99956 16.2665 3.84272 16.5982 3.55469 16.8287C3.22675 17.0946 2.9758 17.3858 2.69633 17.6872C2.65356 17.7328 2.60508 17.7834 2.53664 17.7961C2.40546 17.8214 2.29994 17.7024 2.25717 17.5884C2.13455 17.2693 2.15736 16.8945 2.33987 16.6007C2.85888 15.7625 3.46914 15.9144 3.61743 16.0132Z" fill="#69F0AE"/>
<path d="M27.6317 20.0551C27.435 21.0504 26.5367 21.7418 25.6213 21.6C24.7059 21.4582 24.5804 20.6098 24.7772 19.6145C24.974 18.6192 25.416 17.8569 26.3285 17.9987C27.2439 18.1406 27.8285 19.0624 27.6317 20.0551Z" fill="#F44336"/>
<path d="M7.79496 20.0551C7.99173 21.0504 8.89001 21.7418 9.80541 21.6C10.7208 21.4582 10.8463 20.6098 10.6495 19.6145C10.4527 18.6192 10.0107 17.8569 9.09819 17.9987C8.18564 18.1406 7.60104 19.0624 7.79496 20.0551Z" fill="#F44336"/>
<path d="M9.12102 19.3916C8.91284 19.5993 8.40524 20.0172 8.22558 19.6981C7.98033 19.2625 8.31969 18.604 8.70752 18.3862C9.09535 18.1684 9.41189 18.3406 9.46607 18.5356C9.53166 18.7838 9.30638 19.2042 9.12102 19.3916Z" fill="#FFA8A4"/>
<path d="M25.3479 20.0273C25.0656 19.9893 25.0342 19.1257 25.7928 18.447C26.155 18.1228 26.674 18.5078 26.5428 19.0269C26.4173 19.5208 25.8641 20.0982 25.3479 20.0273Z" fill="#FFA8A4"/>
<path d="M30.2437 22.8536C28.5355 23.6134 24.6173 25.6369 17.3825 25.6369C10.1477 25.6369 6.22949 23.6134 4.52132 22.8536C4.52132 22.8536 3.9082 23.1449 3.9082 23.4488V25.7812C3.9082 26.0927 4.09356 26.3789 4.39584 26.5385C5.73044 27.2374 9.79697 28.8887 17.3854 28.8887C24.9737 28.8887 29.0403 27.2374 30.3749 26.5385C30.5232 26.4608 30.6462 26.3501 30.7318 26.2173C30.8173 26.0845 30.8623 25.9342 30.8625 25.7812V23.4488C30.8568 23.1449 30.2437 22.8536 30.2437 22.8536Z" fill="#FFCA28"/>
<path d="M10.4099 26.0522C11.2084 26.1915 11.4508 26.2523 11.3966 26.6474C11.2854 27.4249 9.46882 27.24 8.39373 26.9893C6.17225 26.4701 5.72168 25.9231 5.72168 25.4343C5.72168 24.986 6.10951 24.9328 6.70837 25.1202C7.42415 25.3456 8.53061 25.7255 10.4099 26.0522Z" fill="#FFF59D"/>
<path d="M30.2438 23.3652C30.2438 23.3652 25.5186 25.7407 17.3827 25.7407C9.24676 25.7407 4.52148 23.3652 4.52148 23.3652" stroke="#F19534" stroke-width="2" stroke-miterlimit="10" stroke-linecap="round"/>
<path d="M6.80877 10.5353C8.32588 9.57299 9.14147 7.84833 9.21276 5.10306C9.21846 4.85487 9.29831 4.78143 9.44945 4.76623C9.69185 4.74344 9.73177 4.93845 9.72892 5.07774C9.66048 8.0408 9.23557 9.89209 7.55307 10.9355C7.47037 10.9861 6.88007 11.3052 6.62912 11.0849C6.32969 10.8266 6.71182 10.5961 6.80877 10.5353Z" fill="#FFCA28"/>
<path d="M8.19695 1.91713C8.14847 1.45874 8.26825 0.633132 9.6228 0.258317C10.0192 0.149418 10.2644 0.32163 10.3101 0.455855C10.4241 0.790149 10.0933 0.921841 9.9422 0.964894C8.90132 1.26373 8.84999 1.72465 8.63612 2.01843C8.42224 2.3122 8.21406 2.05642 8.19695 1.91713Z" fill="#FFCA28"/>
<path d="M21.4234 9.92753C22.7951 8.84614 23.7048 7.63812 24.3037 4.88779C24.3578 4.64467 24.4377 4.57882 24.586 4.58388C24.8284 4.58895 24.8398 4.78902 24.8141 4.92578C24.3065 7.85845 23.8246 8.69419 22.1335 10.3581C21.9425 10.5455 21.4776 10.7152 21.2153 10.5201C20.9786 10.3454 21.2523 10.0643 21.4234 9.92753Z" fill="#FFCA28"/>
<path d="M23.4421 1.93994C23.3936 1.48155 23.5134 0.655944 24.8679 0.281129C25.2643 0.17223 25.5096 0.344442 25.5552 0.478667C25.6692 0.812961 25.3385 0.944653 25.1873 0.987706C24.1464 1.28655 24.0951 1.74747 23.8812 2.04124C23.6702 2.33501 23.4592 2.07923 23.4421 1.93994Z" fill="#FFCA28"/>
<path d="M8.1256 16.1196C4.81192 14.7849 3.83664 11.3027 3.31763 9.79077C3.24919 9.5907 3.28341 9.40076 3.5087 9.33998C3.73398 9.27919 3.86801 9.40835 3.9393 9.60842C4.31573 10.705 5.77865 14.3671 8.79861 15.4079C9.01819 15.4839 9.36039 15.6688 9.17503 15.9853C9.05241 16.1905 8.65887 16.3348 8.1256 16.1196Z" fill="#FFF59D"/>
<path d="M2.73404 4.21921C2.57434 3.92544 2.50875 3.64686 1.63898 3.32522C1.4194 3.24418 1.27396 3.06437 1.33385 2.86177C1.39374 2.65917 1.62187 2.50722 1.95267 2.55787C3.02776 2.72248 3.2616 3.69244 3.30723 4.02927C3.35001 4.35343 2.89658 4.51298 2.73404 4.21921Z" fill="#FFF59D"/>
<path d="M26.7422 16.1196C30.0559 14.7849 31.0311 11.3027 31.5502 9.79078C31.6186 9.59071 31.5844 9.40077 31.3591 9.33999C31.1338 9.27921 30.9998 9.40837 30.9285 9.60844C30.5521 10.705 29.0891 14.3671 26.0692 15.4079C25.8496 15.4839 25.5074 15.6688 25.6928 15.9854C25.8154 16.1905 26.2089 16.3349 26.7422 16.1196Z" fill="#FFF59D"/>
<path d="M32.1346 4.21921C32.2943 3.92544 32.3599 3.64686 33.2297 3.32522C33.4492 3.24418 33.5947 3.06437 33.5348 2.86177C33.4749 2.65917 33.2468 2.50722 32.916 2.55787C31.8409 2.72248 31.607 3.69244 31.5614 4.02927C31.5186 4.35343 31.9749 4.51298 32.1346 4.21921Z" fill="#FFF59D"/>
<path d="M16.051 5.46523C16.225 5.14866 16.5301 4.7156 17.5254 4.53325C17.9075 4.46234 18.0187 4.31546 17.9845 4.09259C17.9161 3.62914 17.2659 3.66206 16.9151 3.73551C15.7459 3.97863 15.4864 4.90047 15.4379 5.26516C15.3894 5.61211 15.8799 5.78179 16.051 5.46523Z" fill="#FFF59D"/>
</svg>
