<svg width="48" height="48" viewBox="0 0 48 48" fill="none" xmlns="http://www.w3.org/2000/svg">
<path d="M18 10C17.4696 10 16.9609 10.2107 16.5858 10.5858C16.2107 10.9609 16 11.4696 16 12C16 12.5305 16.2107 13.0392 16.5858 13.4142C16.9609 13.7893 17.4696 14 18 14C18.5304 14 19.0391 13.7893 19.4142 13.4142C19.7893 13.0392 20 12.5305 20 12C20 11.4696 19.7893 10.9609 19.4142 10.5858C19.0391 10.2107 18.5304 10 18 10ZM12.34 10C12.7532 8.82895 13.5195 7.81489 14.5332 7.0976C15.5469 6.38031 16.7582 5.99512 18 5.99512C19.2418 5.99512 20.4531 6.38031 21.4668 7.0976C22.4805 7.81489 23.2468 8.82895 23.66 10H38C38.5304 10 39.0391 10.2107 39.4142 10.5858C39.7893 10.9609 40 11.4696 40 12C40 12.5305 39.7893 13.0392 39.4142 13.4142C39.0391 13.7893 38.5304 14 38 14H23.66C23.2468 15.1711 22.4805 16.1852 21.4668 16.9024C20.4531 17.6197 19.2418 18.0049 18 18.0049C16.7582 18.0049 15.5469 17.6197 14.5332 16.9024C13.5195 16.1852 12.7532 15.1711 12.34 14H10C9.46957 14 8.96086 13.7893 8.58579 13.4142C8.21071 13.0392 8 12.5305 8 12C8 11.4696 8.21071 10.9609 8.58579 10.5858C8.96086 10.2107 9.46957 10 10 10H12.34ZM30 22C29.4696 22 28.9609 22.2107 28.5858 22.5858C28.2107 22.9609 28 23.4696 28 24C28 24.5305 28.2107 25.0392 28.5858 25.4142C28.9609 25.7893 29.4696 26 30 26C30.5304 26 31.0391 25.7893 31.4142 25.4142C31.7893 25.0392 32 24.5305 32 24C32 23.4696 31.7893 22.9609 31.4142 22.5858C31.0391 22.2107 30.5304 22 30 22ZM24.34 22C24.7532 20.829 25.5195 19.8149 26.5332 19.0976C27.5469 18.3803 28.7582 17.9951 30 17.9951C31.2418 17.9951 32.4531 18.3803 33.4668 19.0976C34.4805 19.8149 35.2468 20.829 35.66 22H38C38.5304 22 39.0391 22.2107 39.4142 22.5858C39.7893 22.9609 40 23.4696 40 24C40 24.5305 39.7893 25.0392 39.4142 25.4142C39.0391 25.7893 38.5304 26 38 26H35.66C35.2468 27.1711 34.4805 28.1852 33.4668 28.9024C32.4531 29.6197 31.2418 30.0049 30 30.0049C28.7582 30.0049 27.5469 29.6197 26.5332 28.9024C25.5195 28.1852 24.7532 27.1711 24.34 26H10C9.46957 26 8.96086 25.7893 8.58579 25.4142C8.21071 25.0392 8 24.5305 8 24C8 23.4696 8.21071 22.9609 8.58579 22.5858C8.96086 22.2107 9.46957 22 10 22H24.34ZM18 34C17.4696 34 16.9609 34.2107 16.5858 34.5858C16.2107 34.9609 16 35.4696 16 36C16 36.5305 16.2107 37.0392 16.5858 37.4142C16.9609 37.7893 17.4696 38 18 38C18.5304 38 19.0391 37.7893 19.4142 37.4142C19.7893 37.0392 20 36.5305 20 36C20 35.4696 19.7893 34.9609 19.4142 34.5858C19.0391 34.2107 18.5304 34 18 34ZM12.34 34C12.7532 32.829 13.5195 31.8149 14.5332 31.0976C15.5469 30.3803 16.7582 29.9951 18 29.9951C19.2418 29.9951 20.4531 30.3803 21.4668 31.0976C22.4805 31.8149 23.2468 32.829 23.66 34H38C38.5304 34 39.0391 34.2107 39.4142 34.5858C39.7893 34.9609 40 35.4696 40 36C40 36.5305 39.7893 37.0392 39.4142 37.4142C39.0391 37.7893 38.5304 38 38 38H23.66C23.2468 39.1711 22.4805 40.1852 21.4668 40.9024C20.4531 41.6197 19.2418 42.0049 18 42.0049C16.7582 42.0049 15.5469 41.6197 14.5332 40.9024C13.5195 40.1852 12.7532 39.1711 12.34 38H10C9.46957 38 8.96086 37.7893 8.58579 37.4142C8.21071 37.0392 8 36.5305 8 36C8 35.4696 8.21071 34.9609 8.58579 34.5858C8.96086 34.2107 9.46957 34 10 34H12.34Z" fill="#476160"/>
</svg>
