<svg width="24" height="24" viewBox="0 0 24 24" fill="none" xmlns="http://www.w3.org/2000/svg">
<g clip-path="url(#clip0_1579_8039)">
<path fill-rule="evenodd" clip-rule="evenodd" d="M20.7901 15.5114C20.5928 20.2228 16.7124 23.9822 11.9525 23.9822C7.06642 23.9822 3.10547 19.8881 3.10547 15.1352C3.10547 14.4999 3.09409 13.2302 4.04665 11.0881C4.61672 9.80615 4.97428 9.00079 5.17606 8.2646C5.28693 7.85999 5.50256 7.21716 6.11724 8.2646C6.47969 8.8822 6.49371 9.77048 6.49371 9.77048C6.49371 9.77048 7.84223 8.73566 8.75253 6.75872C10.087 3.86055 9.02227 2.12813 8.65842 0.923423C8.53249 0.50667 8.45343 -0.242318 9.31724 0.0763639C10.1974 0.401164 12.5244 2.03006 13.7408 3.74695C15.4768 6.19731 16.0937 8.54695 16.0937 8.54695C16.0937 8.54695 16.6496 7.85707 16.8467 7.13519C17.0692 6.32003 17.0725 5.51269 17.7877 6.38234C18.4679 7.20935 19.4781 8.76352 20.0467 10.2411C21.079 12.9243 20.7901 15.5114 20.7901 15.5114Z" fill="url(#paint0_linear_1579_8039)"/>
<path fill-rule="evenodd" clip-rule="evenodd" d="M11.9526 23.9822C8.57388 23.9822 5.83496 21.2433 5.83496 17.8646C5.83496 15.8259 6.65651 14.5882 8.36635 12.9097C9.46113 11.8349 10.4858 10.5149 10.9213 9.61611C11.007 9.43917 11.2021 8.5171 11.9544 9.59672C12.349 10.1629 12.9677 11.1699 13.3644 12.0293C14.0482 13.511 14.2114 14.9469 14.2114 14.9469C14.2114 14.9469 14.8816 14.552 15.3408 13.5352C15.4889 13.2075 15.7882 11.9668 16.6249 13.2073C17.2388 14.1176 18.0822 15.7543 18.0703 17.8646C18.0703 21.2433 15.3312 23.9822 11.9526 23.9822Z" fill="#FC9502"/>
<path fill-rule="evenodd" clip-rule="evenodd" d="M12.0467 17.2998C12.9173 17.2998 12.9173 18.9119 14.0231 21.0645C14.7595 22.4978 13.6581 23.9822 12.0467 23.9822C10.4353 23.9822 9.59961 22.6759 9.59961 21.0645C9.59961 19.4532 11.1761 17.2998 12.0467 17.2998Z" fill="#FCE202"/>
</g>
<defs>
<linearGradient id="paint0_linear_1579_8039" x1="11.9658" y1="23.9999" x2="11.9658" y2="0.0176344" gradientUnits="userSpaceOnUse">
<stop stop-color="#FF4C0D"/>
<stop offset="1" stop-color="#FC9502"/>
</linearGradient>
<clipPath id="clip0_1579_8039">
<rect width="24" height="24" fill="white"/>
</clipPath>
</defs>
</svg>