<svg width="43" height="43" viewBox="0 0 43 43" fill="none" xmlns="http://www.w3.org/2000/svg">
<path d="M37.6528 21.5893L37.5193 21.7937C37.4943 21.8355 34.8612 25.808 31.4688 30.5357C28.8483 34.1869 25.798 34.6709 24.3542 34.6709C23.8702 34.6709 23.5656 34.6167 23.5155 34.6083H14.857L14.252 34.0116H23.5739C23.7992 34.0492 27.7091 34.7335 30.9806 30.1852C33.9224 26.0917 36.28 22.5699 36.8725 21.6811C36.4469 21.3347 35.0782 20.2123 33.7596 20.4251C33.334 20.496 32.6914 20.9759 31.9862 21.6727L31.8902 21.5768V20.8716C32.5662 20.2957 33.1963 19.9077 33.6678 19.8325C35.6416 19.5112 37.4066 21.3514 37.4734 21.4182L37.6528 21.5893Z" fill="#C9971C"/>
<path d="M36.8688 21.6811C36.2763 22.5741 33.9187 26.0959 30.9769 30.1852C27.7054 34.7336 23.7955 34.0492 23.5702 34.0117H14.2482L7.79297 27.619C8.36881 26.6384 11.4316 22.1443 18.3584 24.285C18.6714 24.5478 20.2153 25.5869 23.8164 24.7565C24.3004 24.6438 24.7219 24.5979 25.0933 24.5979C26.2074 24.5979 26.8291 25.0361 27.163 25.4658C27.7346 26.1919 27.7346 27.1892 27.4467 27.765C26.8583 28.9376 25.8819 29.4592 24.2837 29.4592H18.9635V30.0559H24.2837C26.1198 30.0559 27.2923 29.4091 27.985 28.0279C28.1185 27.7567 28.202 27.4104 28.2187 27.039L28.2228 27.0515C28.782 25.5243 30.5179 23.1291 31.9867 21.6728C32.6919 20.9718 33.3303 20.4919 33.7601 20.4251C35.0745 20.2123 36.4432 21.3306 36.8688 21.6811Z" fill="#FFF0C2"/>
<path d="M33.2294 11.0659V14.2205C33.2294 14.9049 32.6744 15.4599 31.9901 15.4599H31.8816V20.8761C31.6938 21.043 31.5019 21.2183 31.3057 21.406V15.4599H25.2427V24.0099C25.0341 23.9973 24.8087 24.0057 24.5709 24.0307V10.536C24.5125 10.536 24.4624 10.5402 24.404 10.5402C23.945 10.5402 23.4609 10.5235 22.9477 10.4984H22.8016C22.5972 10.511 22.4052 10.5151 22.2133 10.5235V24.4146C21.9713 24.4396 21.7501 24.4563 21.5415 24.4647V15.4599H15.3074V23.1336C15.1112 23.1169 14.9193 23.1169 14.7315 23.1169V15.4599H14.4603C13.7759 15.4599 13.2168 14.9049 13.2168 14.2205V11.0659C13.2168 10.3816 13.7759 9.82662 14.4603 9.82662H17.2352C16.7553 9.57208 16.3964 9.25912 16.1795 8.87523C15.516 7.70268 16.3756 6.42164 16.4131 6.3674C17.0307 5.6163 17.7276 5.29082 18.4995 5.37845C20.4649 5.59543 22.2759 8.54141 22.8768 9.61381C23.4818 8.54141 25.2928 5.59543 27.2582 5.37845C28.0259 5.28665 28.727 5.61213 29.3279 6.33819C29.3821 6.41747 30.2417 7.69851 29.5782 8.87106C29.3612 9.25495 29.0024 9.56374 28.5225 9.82245H31.9942C32.6744 9.82662 33.2294 10.3816 33.2294 11.0659ZM32.5576 14.2205V11.0659C32.5576 10.753 32.303 10.4984 31.9901 10.4984H25.6266C25.4972 10.5026 25.3762 10.5151 25.2427 10.5193V14.7839H31.9942C32.303 14.7839 32.5576 14.5335 32.5576 14.2205ZM28.9899 8.55393C29.4489 7.74441 28.7937 6.75964 28.7854 6.75129C28.3472 6.2297 27.8632 5.98767 27.3291 6.05027C25.877 6.20883 24.283 8.50385 23.5319 9.82662H25.6975C27.834 9.66388 28.6852 9.08804 28.9899 8.55393ZM20.0393 9.82662H22.2175C21.4664 8.50385 19.8765 6.20883 18.4244 6.05027C17.8861 5.99185 17.3979 6.22552 16.9473 6.77633C16.9514 6.77633 16.313 7.74858 16.7678 8.55393C17.0683 9.0797 17.907 9.66388 20.0393 9.82662ZM21.5456 14.7839V10.5443H21.3495C20.9114 10.5443 20.5108 10.5276 20.1269 10.5026H14.4603C14.1473 10.5026 13.8928 10.753 13.8928 11.0701V14.2247C13.8928 14.5377 14.1432 14.7922 14.4603 14.7922H21.5456V14.7839Z" fill="#EF4666"/>
<path d="M32.5668 11.0663V14.2209C32.5668 14.5338 32.3123 14.7884 31.9993 14.7884H25.252V10.5238C25.3855 10.5196 25.5065 10.5071 25.6358 10.5029H32.0035C32.3123 10.5029 32.5668 10.7533 32.5668 11.0663Z" fill="#FFF0C2"/>
<path d="M31.8903 21.5779L31.9863 21.6738C30.5175 23.1301 28.7858 25.5253 28.2225 27.0525L28.2183 27.04C28.2433 26.6812 28.2016 26.2931 28.0723 25.9175C28.7024 24.407 30.0251 22.6419 31.3103 21.3984V21.8533L31.6608 21.5779H31.8903Z" fill="#C9971C"/>
<path d="M31.8864 20.8721V21.5773H31.6611L31.3105 21.8527V21.3978C31.5067 21.2142 31.6986 21.039 31.8864 20.8721Z" fill="#C9971C"/>
<path d="M31.3192 15.46V21.4062C30.0339 22.6496 28.7112 24.4147 28.0811 25.9253C27.9851 25.6373 27.8391 25.3536 27.6388 25.0991C27.2966 24.6651 26.5872 24.06 25.252 24.01V15.46H31.3192Z" fill="#FFE085"/>
<path d="M28.7909 6.75179C28.7951 6.76431 29.4544 7.74491 28.9954 8.55443C28.6907 9.08854 27.8437 9.66439 25.703 9.8313H23.5332C24.2843 8.50853 25.8825 6.21351 27.3304 6.05494C27.8687 5.98818 28.3527 6.22603 28.7909 6.75179Z" fill="#F59A9B"/>
<path d="M28.0811 25.9219C28.2105 26.2974 28.2522 26.6855 28.2272 27.0443L27.9727 26.2056C28.0019 26.1138 28.0352 26.0178 28.0811 25.9219Z" fill="#C9971C"/>
<path d="M27.9596 26.2049L28.2142 27.0436C28.1975 27.4108 28.114 27.7572 27.9805 28.0326C27.2878 29.4138 26.1111 30.0605 24.2793 30.0605H18.959V29.4597H24.2793C25.8816 29.4597 26.858 28.9381 27.4422 27.7613C27.7301 27.1855 27.7301 26.1882 27.1585 25.4622C26.8205 25.0282 26.2029 24.5942 25.0888 24.5942V24.4273H25.2432V24.0059C26.5785 24.0559 27.2878 24.661 27.63 25.095C27.8345 25.3495 27.9763 25.6332 28.0723 25.9212C28.0264 26.0171 27.993 26.1131 27.9596 26.2049Z" fill="#C9971C"/>
<path d="M25.248 24.0057V24.4272H25.0936L24.5762 24.4397V24.0308C24.814 24.0016 25.0393 23.9974 25.248 24.0057Z" fill="#C9971C"/>
<path d="M25.0936 24.428V24.5949C24.7264 24.5949 24.305 24.645 23.8168 24.7534C20.2157 25.5838 18.6717 24.5448 18.3588 24.2819C11.432 22.1413 8.36918 26.6354 7.79334 27.616L7.35938 27.182C8.00615 26.143 10.2553 23.1553 14.7327 23.1094V23.3639H15.3127V23.1219C16.3016 23.1594 17.3949 23.3514 18.5925 23.7269L18.6634 23.7478L18.7176 23.7979C18.7302 23.8104 19.5146 24.5239 21.551 24.4614V24.67H21.7596L22.2228 24.6658V24.4155C22.6609 24.3737 23.145 24.2944 23.6832 24.1693C24.0045 24.0983 24.3008 24.0524 24.5762 24.0232V24.4321L25.0936 24.428Z" fill="#C9971C"/>
<path d="M24.5761 10.5363V24.0269C24.3049 24.0519 24.0044 24.102 23.6831 24.1729C23.1448 24.2939 22.6566 24.3774 22.2227 24.4191V10.528C22.4146 10.5154 22.6066 10.5113 22.811 10.5029H22.9571C23.4703 10.528 23.9544 10.5447 24.4134 10.5447C24.4676 10.5447 24.5177 10.5363 24.5761 10.5363Z" fill="#F59A9B"/>
<path d="M22.2187 24.4189V24.6693L21.7555 24.6735H21.5469V24.4648C21.7555 24.4607 21.9767 24.444 22.2187 24.4189Z" fill="#C9971C"/>
<path d="M22.2222 9.82637H20.044C17.9076 9.65946 17.073 9.07945 16.7684 8.54951C16.3136 7.74416 16.9562 6.77191 16.9478 6.77191C17.4027 6.2211 17.8867 5.98743 18.425 6.04585C19.8813 6.20859 21.4711 8.50361 22.2222 9.82637Z" fill="#F59A9B"/>
<path d="M21.5508 15.46V24.469C19.5145 24.5316 18.73 23.818 18.7175 23.8055L18.6632 23.7554L18.5923 23.7346C17.3905 23.359 16.2973 23.1671 15.3125 23.1295V15.46H21.5508Z" fill="#FFE085"/>
<path d="M21.5552 10.5449V14.7886H14.4698C14.1569 14.7886 13.9023 14.5383 13.9023 14.2211V11.0665C13.9023 10.7536 14.1527 10.499 14.4698 10.499H20.1365C20.5204 10.5241 20.9209 10.5408 21.3591 10.5408C21.4217 10.5449 21.4884 10.5449 21.5552 10.5449Z" fill="#FFF0C2"/>
<path d="M15.3118 23.1297V23.3717H14.736V23.1172C14.9238 23.1172 15.1157 23.1172 15.3118 23.1297ZM15.0448 34.8009C15.8459 35.5979 15.8543 36.8998 15.0573 37.6968L14.156 38.6107C13.7721 38.9987 13.2588 39.2157 12.708 39.2157H12.6955C12.153 39.2157 11.6398 39.0071 11.2559 38.6274L3.02302 30.4738C2.63913 30.0857 2.41797 29.5725 2.41797 29.0217C2.41797 28.4708 2.62661 27.9618 3.0105 27.5695L3.91182 26.6557C4.29571 26.2718 4.80896 26.0506 5.35977 26.0506H5.37229C5.91475 26.0506 6.428 26.2593 6.82024 26.6432L7.3627 27.1815C7.22917 27.3943 7.16658 27.5278 7.15823 27.5403L7.69235 27.7949C7.69652 27.7907 7.7299 27.7239 7.79249 27.6154L14.2478 34.0081H13.9348V34.5381L6.39462 27.0688C6.12339 26.8017 5.76035 26.6515 5.36811 26.6515H5.36394C4.97587 26.6515 4.6045 26.8059 4.33327 27.0771L3.43195 27.991C3.16072 28.2622 3.01467 28.6294 3.01467 29.0217C3.01467 29.4097 3.16907 29.7728 3.4403 30.0482L11.6732 38.2017C11.9444 38.473 12.3074 38.6232 12.6913 38.6232H12.7038C13.0919 38.619 13.4549 38.4688 13.7303 38.1892L14.6317 37.2837C15.1992 36.7121 15.1908 35.7899 14.6191 35.2224L14.0016 34.609H14.8528L15.0448 34.8009Z" fill="#C9971C"/>
<path d="M14.8536 34.6094H14.0065L13.9355 34.5385V34.0127H14.2485L14.8536 34.6094Z" fill="#C9971C"/>
<path d="M14.624 35.2222C15.1957 35.7897 15.1998 36.7119 14.6365 37.2836L13.7352 38.1891C13.464 38.4645 13.1009 38.6147 12.7087 38.623H12.6962C12.3123 38.623 11.9493 38.4728 11.678 38.2016L3.44515 30.048C3.17392 29.7768 3.01953 29.4137 3.01953 29.0215C3.01953 28.6334 3.16558 28.2621 3.43681 27.9908L4.33813 27.077C4.60936 26.8058 4.97656 26.6514 5.3688 26.6514H5.37297C5.76104 26.6514 6.12407 26.8016 6.39947 27.0686L13.9397 34.5379V34.6088H14.0106L14.624 35.2222Z" fill="#C9971C"/>
<path d="M14.0057 34.6089H13.9348V34.538L14.0057 34.6089ZM7.3585 27.1855L7.79246 27.6195C7.72987 27.7322 7.69649 27.7948 7.69232 27.7989L7.1582 27.5444C7.16238 27.5319 7.22914 27.3984 7.3585 27.1855Z" fill="#C9971C"/>
</svg>
