<svg width="24" height="24" viewBox="0 0 24 24" fill="none" xmlns="http://www.w3.org/2000/svg">
<path d="M21.1132 3.44669C20.9596 4.98006 19.4436 6.21888 17.9025 6.21888H11.9995C11.676 6.21888 11.3855 6.01966 11.2694 5.71802C11.1527 5.41614 11.2342 5.07372 11.4742 4.85641L15.9381 0.810908C16.8608 -0.0259517 18.1422 -0.232577 19.2825 0.27283C20.5231 0.82272 21.2517 2.06303 21.1132 3.44669ZM14.0284 4.65363H17.9516C18.7671 4.65363 19.5019 4.05222 19.5602 3.23885C19.6146 2.4797 19.1776 1.8468 18.4333 1.6248C17.9147 1.47011 17.3537 1.6397 16.9526 2.00317C16.0157 2.85241 14.0284 4.65363 14.0284 4.65363Z" fill="#FFCC33"/>
<path d="M11.9947 6.21881H6.09187C4.55113 6.21881 3.03506 4.98038 2.88112 3.44733C2.74223 2.06377 3.47104 0.823033 4.71126 0.273096C5.85107 -0.232123 7.13193 -0.026248 8.05617 0.810658L12.52 4.85644C12.76 5.07375 12.8415 5.41617 12.7249 5.71805C12.6087 6.01964 12.3183 6.21881 11.9947 6.21881ZM5.98354 1.56521C5.76253 1.56521 5.53818 1.61456 5.32026 1.71525C4.90392 1.90767 4.58188 2.28792 4.47492 2.73394C4.23201 3.74672 4.99753 4.65356 5.97028 4.65356H9.96585L7.0056 1.97049C6.7101 1.70306 6.35245 1.56521 5.98354 1.56521Z" fill="#FFE14D"/>
<path d="M13.565 4.65364H10.4346C10.4346 3.78917 11.1353 3.08844 11.9998 3.08844C12.8643 3.08844 13.565 3.78922 13.565 4.65364Z" fill="#FF9F19"/>
<path d="M13.5652 4.65364C13.5652 3.78917 12.8645 3.08844 12 3.08844V4.65364H13.5652Z" fill="#F28618"/>
<path d="M22.435 7.78406V22.3927C22.435 23.2589 21.7358 23.958 20.8698 23.958H3.13063C2.26462 23.958 1.56543 23.2588 1.56543 22.3927V7.78406H22.435Z" fill="#E6563A"/>
<path d="M12 23.958H20.8695C21.7356 23.958 22.4347 23.2589 22.4347 22.3928V7.78406H12V23.958Z" fill="#D9472B"/>
<path d="M22.4348 4.65363H1.5652C0.699187 4.65363 0 5.35277 0 6.21883V8.56666C0 8.99969 0.3495 9.34928 0.782625 9.34928H23.2174C23.6505 9.34928 24 8.99973 24 8.56666V6.21883C24 5.35277 23.3008 4.65363 22.4348 4.65363Z" fill="#FF9F19"/>
<path d="M22.4348 4.65363H12V9.34928H23.2174C23.6505 9.34928 24 8.99973 24 8.56666V6.21883C24 5.35277 23.3008 4.65363 22.4348 4.65363Z" fill="#F28618"/>
<path d="M13.565 4.65375H10.4346V23.9581H13.565V4.65375Z" fill="#FFE14D"/>
<path d="M13.5652 4.65375H12V23.9581H13.5652V4.65375Z" fill="#FFCC33"/>
</svg>
