<svg width="44" height="44" viewBox="0 0 44 44" fill="none" xmlns="http://www.w3.org/2000/svg">
<g clip-path="url(#clip0_746_5099)">
<path d="M37.4 0H6.6C2.95492 0 0 2.95492 0 6.6V37.4C0 41.0451 2.95492 44 6.6 44H37.4C41.0451 44 44 41.0451 44 37.4V6.6C44 2.95492 41.0451 0 37.4 0Z" fill="#29303D"/>
<path d="M29.7344 18.3906V15.2109C29.7344 4.64062 14.2656 4.64062 14.2656 15.2109V18.3906" fill="#29303D"/>
<path d="M29.7344 18.3906V15.2109C29.7344 4.64062 14.2656 4.64062 14.2656 15.2109V18.3906" stroke="#E0E4EB" stroke-width="4"/>
<path d="M31.7453 18.0469H12.0828C10.8678 18.0469 9.88281 19.0318 9.88281 20.2469V33.8937C9.88281 35.1088 10.8678 36.0938 12.0828 36.0938H31.7453C32.9603 36.0938 33.9453 35.1088 33.9453 33.8937V20.2469C33.9453 19.0318 32.9603 18.0469 31.7453 18.0469Z" fill="#FFFF00"/>
<path d="M22 27.8438C23.3289 27.8438 24.4062 26.7664 24.4062 25.4375C24.4062 24.1086 23.3289 23.0312 22 23.0312C20.6711 23.0312 19.5938 24.1086 19.5938 25.4375C19.5938 26.7664 20.6711 27.8438 22 27.8438Z" fill="#29303D"/>
<path d="M22.5156 25.4375H21.4844L20.1094 31.3672H23.8906" fill="#29303D"/>
</g>
<defs>
<clipPath id="clip0_746_5099">
<rect width="44" height="44" fill="white"/>
</clipPath>
</defs>
</svg>
