<svg width="24" height="18" viewBox="0 0 24 18" fill="none" xmlns="http://www.w3.org/2000/svg">
<path d="M2.66667 0C1.95942 0 1.28115 0.280951 0.781049 0.781048C0.280952 1.28115 0 1.95942 0 2.66667L0 14.6667C0 15.3739 0.280952 16.0522 0.781049 16.5523C1.28115 17.0524 1.95942 17.3333 2.66667 17.3333H8V0H2.66667Z" fill="#009A49"/>
<path d="M8 0H16V17.3333H8V0Z" fill="#EEEEEE"/>
<path d="M21.3333 0H16V17.3333H21.3333C22.0406 17.3333 22.7189 17.0524 23.219 16.5523C23.719 16.0522 24 15.3739 24 14.6667V2.66667C24 1.95942 23.719 1.28115 23.219 0.781048C22.7189 0.280951 22.0406 0 21.3333 0Z" fill="#009A49"/>
</svg>