<svg width="29" height="41" viewBox="0 0 29 41" fill="none" xmlns="http://www.w3.org/2000/svg">
<path d="M11.5332 27.5049L18.8305 27.5616C18.8305 27.5616 18.2497 29.4477 17.769 30.1888C16.9845 31.3906 16.5939 32.0048 16.2601 33.2366C15.7427 35.1327 15.7861 36.5915 15.7861 36.5915C15.7861 36.5915 16.19 36.4513 16.6807 36.5915C17.2783 36.7618 17.6021 37.159 17.5487 37.4027C17.4986 37.6197 16.8343 37.4728 16.3736 37.9335C16.0097 38.2973 15.8695 38.9416 15.8128 39.3589C15.756 39.7795 15.6993 40.3103 14.9181 40.4204C14.1337 40.5339 12.962 40.6174 12.7083 40.2235C12.4579 39.8329 12.5948 33.0096 12.5948 33.0096L11.5332 27.5049Z" fill="#307D31"/>
<path d="M11.4489 25.9922C11.3087 26.2426 8.00384 26.8368 8.00384 26.8368C8.00384 26.8368 6.89889 27.4276 6.48161 29.3571C6.25461 30.402 6.30469 32.5184 6.10773 33.2595C5.82732 34.321 4.65227 34.9386 4.70902 35.189C4.76577 35.4393 5.7906 35.4226 6.58176 35.0755C8.37104 34.291 8.68483 32.6686 9.26568 31.2732C9.8265 29.9313 10.8881 29.2269 10.8881 29.2269C10.8881 29.2269 10.6377 30.2017 10.7445 31.2766C10.8346 32.2013 11.1251 33.3797 10.7445 34.5247C10.3806 35.6163 9.8699 36.2739 10.0735 36.374C10.2271 36.4475 12.0498 36.2639 12.7775 34.6682C13.582 32.9056 13.6387 31.4602 14.1194 30.4253C14.6502 29.2803 15.6617 28.7929 15.6617 28.7929C15.6617 28.7929 16.3794 29.2136 17.2574 30.442C18.2355 31.8107 19.0533 32.9624 19.5808 33.6701C20.8159 35.3325 22.5284 35.8566 22.5818 35.5762C22.6653 35.1289 21.7573 34.4112 21.5737 33.5365C21.123 31.3834 21.7406 30.3519 21.2298 28.6995C20.4954 26.3127 18.7629 26.2693 18.162 26.1558C18.0218 26.1357 11.4489 25.9922 11.4489 25.9922Z" fill="#5C9823"/>
<path d="M8.36188 13.8347C7.98466 13.4976 2.39649 9.42494 2.39649 9.42494L2.31304 6.94798C2.31304 6.94798 0.944367 4.36087 2.52 2.43472C3.88867 0.762274 5.71467 1.2363 5.71467 1.2363C5.71467 1.2363 6.62935 0.0846167 8.22501 0.0044996C10.2647 -0.098985 11.2594 1.61686 11.2594 1.61686L20.4562 3.12907L25.6204 6.48731C25.6204 6.48731 26.3849 6.24028 27.0192 6.6876C27.6801 7.15161 27.4631 8.12637 27.3897 8.56368C27.3196 8.98096 20.4963 14.4256 20.4963 14.4256L21.2107 25.0945L18.8272 27.7551C18.8272 27.7551 18.4934 28.0822 17.809 28.169C17.4118 28.2191 16.901 28.0588 16.901 28.0588L15.4155 23.7926L8.36188 13.8347Z" fill="#96010C"/>
<path d="M20.3289 1.32285L19.0871 1.41632L18.2158 2.14739L18.5262 3.55278C18.5262 3.55278 18.5663 4.60432 17.7384 5.10839C16.9105 5.61246 15.2848 6.44034 15.2848 6.44034L14.1632 8.29638C14.1632 8.29638 13.4421 8.05937 12.2671 7.45515C11.1688 6.88766 9.76342 5.59243 9.76342 5.59243L7.24975 5.42218C7.24975 5.42218 6.76904 5.37878 6.36512 5.80608C5.78427 6.42698 5.99124 7.74224 7.12957 8.94733C8.2245 10.1057 10.5946 11.5178 11.1221 11.9083C11.6495 12.2989 12.454 12.7996 12.9114 13.0567C13.352 13.3037 13.8794 13.6576 14.1098 13.6142C14.3401 13.5674 14.6806 12.7829 15.7589 12.0252C16.8371 11.2674 17.892 10.6265 19.6145 10.0289C21.337 9.43138 22.9894 8.7437 23.4935 8.42323C23.9976 8.10277 23.3099 5.92291 22.689 4.59097C22.0681 3.25902 20.3723 1.18599 20.3289 1.32285Z" fill="#AF0C1B"/>
<path d="M14.2952 7.0388C13.8712 7.59962 13.9513 8.25391 13.9513 8.25391C13.9513 8.25391 14.876 8.80805 15.7874 9.12518C17.4398 9.69935 21.1585 9.53912 22.9478 8.73461C24.7371 7.9301 25.6117 7.23575 25.8855 6.39452C26.2059 5.40641 26.473 3.41016 24.5502 1.87124C22.3469 0.105326 19.0221 1.07007 19.0221 1.53074C19.0221 1.99142 20.354 1.62421 20.354 3.29666C20.354 4.9691 18.8852 5.98058 17.393 6.18755C15.9009 6.39452 14.9361 6.18755 14.2952 7.0388Z" fill="#DB132C"/>
<path d="M6.67664 5.59348C6.67664 5.59348 6.50639 4.91916 7.06721 4.37837C7.91512 3.5505 8.9967 3.11653 9.61427 2.44888C10.2318 1.78124 11.1098 0.516059 13.2629 0.222296C16.4543 -0.21501 18.5173 0.980071 18.978 2.44888C19.4386 3.9177 18.564 4.42177 17.6694 4.44514C16.7747 4.4685 16.2773 4.04789 14.6383 4.33164C11.8609 4.81234 10.8961 6.30452 10.6458 6.44473C10.3921 6.58159 9.56753 6.10089 8.44256 5.80045C7.63137 5.58347 7.04384 5.63688 6.67664 5.59348Z" fill="#F71538"/>
<path d="M15.8145 15.183C15.8145 15.183 16.3819 13.2969 18.2347 12.1018C20.0907 10.9067 21.4427 10.8767 23.8028 9.80513C26.1629 8.73356 26.9774 8.0292 27.3547 7.78217C27.7419 7.52847 28.0924 7.29813 28.3628 7.74211C28.5364 8.0292 28.2359 9.20425 27.4381 10.3459C26.6236 11.511 25.8224 12.1519 25.2149 14.1582C24.4104 16.8054 25.9559 19.2122 24.3069 23.4651C23.7728 24.8404 22.5209 26.0989 21.3559 26.9168C20.1909 27.7347 18.5117 27.9183 18.5117 27.9183C18.5117 27.9183 19.1093 27.501 19.4364 25.9654C19.5966 25.211 19.837 23.8724 19.6534 22.4469C19.1293 18.371 15.8145 15.183 15.8145 15.183Z" fill="#CD0E1F"/>
<path d="M3.16689 14.616C3.20695 15.5106 2.78633 18.7654 3.33046 21.3792C3.75775 23.4355 5.87418 27.0708 9.83664 28.1391C13.482 29.1238 17.3843 28.109 17.3843 28.109C17.3843 28.109 18.8565 25.6221 18.1121 21.9968C17.3009 18.0443 13.3518 15.1067 8.79845 12.8567C3.32712 10.1528 2.33567 6.89468 2.33567 6.89468C2.33567 6.89468 0.536376 6.42399 0.0857173 8.04303C-0.605293 10.5267 3.1068 13.264 3.16689 14.616Z" fill="#E2122D"/>
</svg>
