<svg width="31" height="36" viewBox="0 0 31 36" fill="none" xmlns="http://www.w3.org/2000/svg">
<path fill-rule="evenodd" clip-rule="evenodd" d="M18.3433 5.9346C18.3433 2.657 21.0124 0 24.3049 0C27.5973 0 30.2665 2.657 30.2665 5.9346C30.2665 9.21219 27.5973 11.8692 24.3049 11.8692C22.6423 11.8692 21.1399 11.1914 20.0597 10.1009L11.8069 15.7199C11.8832 16.0991 11.9232 16.4908 11.9232 16.8908C11.9232 17.6831 11.7665 18.4405 11.4827 19.1327L20.5319 25.0781C21.559 24.2418 22.8731 23.7383 24.3049 23.7383C27.5973 23.7383 30.2665 26.3954 30.2665 29.6731C30.2665 32.9506 27.5973 35.6076 24.3049 35.6076C21.0124 35.6076 18.3433 32.9506 18.3433 29.6731C18.3433 28.8146 18.527 27.9974 18.8573 27.2596L9.88124 21.3623C8.83418 22.2722 7.46264 22.8254 5.96157 22.8254C2.66909 22.8254 0 20.1683 0 16.8908C0 13.6132 2.66909 10.9562 5.96157 10.9562C7.85486 10.9562 9.54022 11.8346 10.6315 13.2018L18.6297 7.75609C18.4437 7.18133 18.3433 6.56889 18.3433 5.9346Z" fill="#1C274C"/>
</svg>
