<svg width="27" height="27" viewBox="0 0 27 27" fill="none" xmlns="http://www.w3.org/2000/svg">
<path opacity="0.4" d="M11.6771 0.590864C12.5985 -0.196955 14.1073 -0.196955 15.042 0.590864L17.1518 2.40685C17.5524 2.75403 18.3001 3.03444 18.8343 3.03444H21.1042C22.5196 3.03444 23.6813 4.19614 23.6813 5.61154V7.88152C23.6813 8.40228 23.9617 9.1634 24.3089 9.56398L26.1249 11.6738C26.9127 12.5951 26.9127 14.104 26.1249 15.0387L24.3089 17.1484C23.9617 17.549 23.6813 18.2968 23.6813 18.8309V21.1009C23.6813 22.5163 22.5196 23.678 21.1042 23.678H18.8343C18.3135 23.678 17.5524 23.9584 17.1518 24.3056L15.042 26.1216C14.1207 26.9094 12.6118 26.9094 11.6771 26.1216L9.56732 24.3056C9.16673 23.9584 8.41897 23.678 7.88486 23.678H5.57482C4.15941 23.678 2.99772 22.5163 2.99772 21.1009V18.8175C2.99772 18.2968 2.71731 17.549 2.38348 17.1484L0.580849 15.0253C-0.193616 14.104 -0.193616 12.6085 0.580849 11.6871L2.38348 9.56398C2.71731 9.1634 2.99772 8.41564 2.99772 7.89488V5.59818C2.99772 4.18278 4.15941 3.02108 5.57482 3.02108H7.88486C8.40562 3.02108 9.16673 2.74067 9.56732 2.3935L11.6771 0.590864Z" fill="#0B6DE8"/>
<path d="M11.7314 17.5759C11.4643 17.5759 11.2106 17.4691 11.0237 17.2822L7.79238 14.0508C7.40514 13.6635 7.40514 13.0226 7.79238 12.6354C8.17961 12.2481 8.82055 12.2481 9.20778 12.6354L11.7314 15.1591L17.4731 9.41738C17.8604 9.03014 18.5013 9.03014 18.8885 9.41738C19.2758 9.80461 19.2758 10.4455 18.8885 10.8327L12.4391 17.2822C12.2522 17.4691 11.9985 17.5759 11.7314 17.5759Z" fill="#0B6DE8"/>
</svg>