<svg width="30" height="30" viewBox="0 0 30 30" fill="none" xmlns="http://www.w3.org/2000/svg">
<path d="M15 30C23.2843 30 30 23.2843 30 15C30 6.71573 23.2843 0 15 0C6.71573 0 0 6.71573 0 15C0 23.2843 6.71573 30 15 30Z" fill="#C75C5C"/>
<g opacity="0.2">
<path d="M7.96747 23.4375C5.90497 23.4375 5.06122 21.9844 6.09247 20.2031L13.1237 7.96875C14.155 6.1875 15.8425 6.1875 16.8737 7.96875L23.905 20.2031C24.9362 21.9844 24.0925 23.4375 22.03 23.4375H7.96747Z" fill="#231F20"/>
</g>
<path d="M7.96747 22.5C5.90497 22.5 5.06122 21.0469 6.09247 19.2656L13.1237 7.03125C14.155 5.25 15.8425 5.25 16.8737 7.03125L23.905 19.2656C24.9362 21.0469 24.0925 22.5 22.03 22.5H7.96747Z" fill="#F5CF87"/>
<path d="M15.9375 15C15.9375 15.5156 15.5156 15.9375 15 15.9375C14.4844 15.9375 14.0625 15.5156 14.0625 15V11.25C14.0625 10.7344 14.4844 10.3125 15 10.3125C15.5156 10.3125 15.9375 10.7344 15.9375 11.25V15Z" fill="#4F5D73"/>
<path d="M15.9375 18.75C15.9375 19.2656 15.5156 19.6875 15 19.6875C14.4844 19.6875 14.0625 19.2656 14.0625 18.75C14.0625 18.2344 14.4844 17.8125 15 17.8125C15.5156 17.8125 15.9375 18.2344 15.9375 18.75Z" fill="#4F5D73"/>
</svg>
